  0
SECTION
  2
HEADER
  9
$ACADVER
  1
AC1024
  9
$ACADMAINTVER
 70
6
  9
$DWGCODEPAGE
  3
ANSI_1252
  9
$LASTSAVEDBY
  1
ezdxf
  9
$INSBASE
 10
0.0
 20
0.0
 30
0.0
  9
$EXTMIN
 10
1e+20
 20
1e+20
 30
1e+20
  9
$EXTMAX
 10
-1e+20
 20
-1e+20
 30
-1e+20
  9
$LIMMIN
 10
0.0
 20
0.0
  9
$LIMMAX
 10
420.0
 20
297.0
  9
$ORTHOMODE
 70
0
  9
$REGENMODE
 70
1
  9
$FILLMODE
 70
1
  9
$QTEXTMODE
 70
0
  9
$MIRRTEXT
 70
1
  9
$LTSCALE
 40
1.0
  9
$ATTMODE
 70
1
  9
$TEXTSIZE
 40
2.5
  9
$TRACEWID
 40
1.0
  9
$TEXTSTYLE
  7
Standard
  9
$CLAYER
  8
0
  9
$CELTYPE
  6
ByLayer
  9
$CECOLOR
 62
256
  9
$CELTSCALE
 40
1.0
  9
$DISPSILH
 70
0
  9
$DIMSCALE
 40
1.0
  9
$DIMASZ
 40
2.5
  9
$DIMEXO
 40
0.625
  9
$DIMDLI
 40
3.75
  9
$DIMRND
 40
0.0
  9
$DIMDLE
 40
0.0
  9
$DIMEXE
 40
1.25
  9
$DIMTP
 40
0.0
  9
$DIMTM
 40
0.0
  9
$DIMTXT
 40
2.5
  9
$DIMCEN
 40
2.5
  9
$DIMTSZ
 40
0.0
  9
$DIMTOL
 70
0
  9
$DIMLIM
 70
0
  9
$DIMTIH
 70
0
  9
$DIMTOH
 70
0
  9
$DIMSE1
 70
0
  9
$DIMSE2
 70
0
  9
$DIMTAD
 70
1
  9
$DIMZIN
 70
8
  9
$DIMBLK
  1

  9
$DIMASO
 70
1
  9
$DIMSHO
 70
1
  9
$DIMPOST
  1

  9
$DIMAPOST
  1

  9
$DIMALT
 70
0
  9
$DIMALTD
 70
3
  9
$DIMALTF
 40
0.03937007874
  9
$DIMLFAC
 40
1.0
  9
$DIMTOFL
 70
1
  9
$DIMTVP
 40
0.0
  9
$DIMTIX
 70
0
  9
$DIMSOXD
 70
0
  9
$DIMSAH
 70
0
  9
$DIMBLK1
  1

  9
$DIMBLK2
  1

  9
$DIMSTYLE
  2
ISO-25
  9
$DIMCLRD
 70
0
  9
$DIMCLRE
 70
0
  9
$DIMCLRT
 70
0
  9
$DIMTFAC
 40
1.0
  9
$DIMGAP
 40
0.625
  9
$DIMJUST
 70
0
  9
$DIMSD1
 70
0
  9
$DIMSD2
 70
0
  9
$DIMTOLJ
 70
0
  9
$DIMTZIN
 70
8
  9
$DIMALTZ
 70
0
  9
$DIMALTTZ
 70
0
  9
$DIMUPT
 70
0
  9
$DIMDEC
 70
2
  9
$DIMTDEC
 70
2
  9
$DIMALTU
 70
2
  9
$DIMALTTD
 70
3
  9
$DIMTXSTY
  7
Standard
  9
$DIMAUNIT
 70
0
  9
$DIMADEC
 70
0
  9
$DIMALTRND
 40
0.0
  9
$DIMAZIN
 70
0
  9
$DIMDSEP
 70
44
  9
$DIMATFIT
 70
3
  9
$DIMFRAC
 70
0
  9
$DIMLDRBLK
  1

  9
$DIMLUNIT
 70
2
  9
$DIMLWD
 70
-2
  9
$DIMLWE
 70
-2
  9
$DIMTMOVE
 70
0
  9
$DIMFXL
 40
1.0
  9
$DIMFXLON
 70
0
  9
$DIMJOGANG
 40
0.785398163397
  9
$DIMTFILL
 70
0
  9
$DIMTFILLCLR
 70
0
  9
$DIMARCSYM
 70
0
  9
$DIMLTYPE
  6

  9
$DIMLTEX1
  6

  9
$DIMLTEX2
  6

  9
$DIMTXTDIRECTION
 70
0
  9
$LUNITS
 70
2
  9
$LUPREC
 70
4
  9
$SKETCHINC
 40
1.0
  9
$FILLETRAD
 40
10.0
  9
$AUNITS
 70
0
  9
$AUPREC
 70
2
  9
$MENU
  1
.
  9
$ELEVATION
 40
0.0
  9
$PELEVATION
 40
0.0
  9
$THICKNESS
 40
0.0
  9
$LIMCHECK
 70
0
  9
$CHAMFERA
 40
0.0
  9
$CHAMFERB
 40
0.0
  9
$CHAMFERC
 40
0.0
  9
$CHAMFERD
 40
0.0
  9
$SKPOLY
 70
0
  9
$TDCREATE
 40
2461141.975821759
  9
$TDUCREATE
 40
2458532.153996898
  9
$TDUPDATE
 40
2461141.975821759
  9
$TDUUPDATE
 40
2458532.1544311
  9
$TDINDWG
 40
0.0
  9
$TDUSRTIMER
 40
0.0
  9
$USRTIMER
 70
1
  9
$ANGBASE
 50
0.0
  9
$ANGDIR
 70
0
  9
$PDMODE
 70
0
  9
$PDSIZE
 40
0.0
  9
$PLINEWID
 40
0.0
  9
$SPLFRAME
 70
0
  9
$SPLINETYPE
 70
6
  9
$SPLINESEGS
 70
8
  9
$HANDSEED
  5
34
  9
$SURFTAB1
 70
6
  9
$SURFTAB2
 70
6
  9
$SURFTYPE
 70
6
  9
$SURFU
 70
6
  9
$SURFV
 70
6
  9
$UCSBASE
  2

  9
$UCSNAME
  2

  9
$UCSORG
 10
0.0
 20
0.0
 30
0.0
  9
$UCSXDIR
 10
1.0
 20
0.0
 30
0.0
  9
$UCSYDIR
 10
0.0
 20
1.0
 30
0.0
  9
$UCSORTHOREF
  2

  9
$UCSORTHOVIEW
 70
0
  9
$UCSORGTOP
 10
0.0
 20
0.0
 30
0.0
  9
$UCSORGBOTTOM
 10
0.0
 20
0.0
 30
0.0
  9
$UCSORGLEFT
 10
0.0
 20
0.0
 30
0.0
  9
$UCSORGRIGHT
 10
0.0
 20
0.0
 30
0.0
  9
$UCSORGFRONT
 10
0.0
 20
0.0
 30
0.0
  9
$UCSORGBACK
 10
0.0
 20
0.0
 30
0.0
  9
$PUCSBASE
  2

  9
$PUCSNAME
  2

  9
$PUCSORG
 10
0.0
 20
0.0
 30
0.0
  9
$PUCSXDIR
 10
1.0
 20
0.0
 30
0.0
  9
$PUCSYDIR
 10
0.0
 20
1.0
 30
0.0
  9
$PUCSORTHOREF
  2

  9
$PUCSORTHOVIEW
 70
0
  9
$PUCSORGTOP
 10
0.0
 20
0.0
 30
0.0
  9
$PUCSORGBOTTOM
 10
0.0
 20
0.0
 30
0.0
  9
$PUCSORGLEFT
 10
0.0
 20
0.0
 30
0.0
  9
$PUCSORGRIGHT
 10
0.0
 20
0.0
 30
0.0
  9
$PUCSORGFRONT
 10
0.0
 20
0.0
 30
0.0
  9
$PUCSORGBACK
 10
0.0
 20
0.0
 30
0.0
  9
$USERI1
 70
0
  9
$USERI2
 70
0
  9
$USERI3
 70
0
  9
$USERI4
 70
0
  9
$USERI5
 70
0
  9
$USERR1
 40
0.0
  9
$USERR2
 40
0.0
  9
$USERR3
 40
0.0
  9
$USERR4
 40
0.0
  9
$USERR5
 40
0.0
  9
$WORLDVIEW
 70
1
  9
$SHADEDGE
 70
3
  9
$SHADEDIF
 70
70
  9
$TILEMODE
 70
1
  9
$MAXACTVP
 70
64
  9
$PINSBASE
 10
0.0
 20
0.0
 30
0.0
  9
$PLIMCHECK
 70
0
  9
$PEXTMIN
 10
1e+20
 20
1e+20
 30
1e+20
  9
$PEXTMAX
 10
-1e+20
 20
-1e+20
 30
-1e+20
  9
$PLIMMIN
 10
0.0
 20
0.0
  9
$PLIMMAX
 10
420.0
 20
297.0
  9
$UNITMODE
 70
0
  9
$VISRETAIN
 70
1
  9
$PLINEGEN
 70
0
  9
$PSLTSCALE
 70
1
  9
$TREEDEPTH
 70
3020
  9
$CMLSTYLE
  2
Standard
  9
$CMLJUST
 70
0
  9
$CMLSCALE
 40
20.0
  9
$PROXYGRAPHICS
 70
1
  9
$MEASUREMENT
 70
1
  9
$CELWEIGHT
370
-1
  9
$ENDCAPS
280
0
  9
$JOINSTYLE
280
0
  9
$LWDISPLAY
290
0
  9
$INSUNITS
 70
6
  9
$HYPERLINKBASE
  1

  9
$STYLESHEET
  1

  9
$XEDIT
290
1
  9
$CEPSNTYPE
380
0
  9
$PSTYLEMODE
290
1
  9
$FINGERPRINTGUID
  2
{020C41A2-008B-40F6-81D5-692688CCD5B2}
  9
$VERSIONGUID
  2
{71877F61-8BC8-4406-ACF8-55D5ADF8E9F6}
  9
$EXTNAMES
290
1
  9
$PSVPSCALE
 40
0.0
  9
$OLESTARTUP
290
0
  9
$SORTENTS
280
127
  9
$INDEXCTL
280
0
  9
$HIDETEXT
280
1
  9
$XCLIPFRAME
280
1
  9
$HALOGAP
280
0
  9
$OBSCOLOR
 70
257
  9
$OBSLTYPE
280
0
  9
$INTERSECTIONDISPLAY
280
0
  9
$INTERSECTIONCOLOR
 70
257
  9
$DIMASSOC
280
2
  9
$PROJECTNAME
  1

  9
$CAMERADISPLAY
290
0
  9
$LENSLENGTH
 40
50.0
  9
$CAMERAHEIGHT
 40
0.0
  9
$STEPSPERSEC
 40
24.0
  9
$STEPSIZE
 40
100.0
  9
$3DDWFPREC
 40
2.0
  9
$PSOLWIDTH
 40
0.005
  9
$PSOLHEIGHT
 40
0.08
  9
$LOFTANG1
 40
1.570796326795
  9
$LOFTANG2
 40
1.570796326795
  9
$LOFTMAG1
 40
0.0
  9
$LOFTMAG2
 40
0.0
  9
$LOFTPARAM
 70
7
  9
$LOFTNORMALS
280
1
  9
$LATITUDE
 40
37.795
  9
$LONGITUDE
 40
-122.394
  9
$NORTHDIRECTION
 40
0.0
  9
$TIMEZONE
 70
-8000
  9
$LIGHTGLYPHDISPLAY
280
1
  9
$TILEMODELIGHTSYNCH
280
1
  9
$CMATERIAL
347
20
  9
$SOLIDHIST
280
0
  9
$SHOWHIST
280
1
  9
$DWFFRAME
280
2
  9
$DGNFRAME
280
2
  9
$REALWORLDSCALE
290
1
  9
$INTERFERECOLOR
 62
256
  9
$CSHADOW
280
0
  9
$SHADOWPLANELOCATION
 40
0.0
  0
ENDSEC
  0
SECTION
  2
CLASSES
  0
CLASS
  1
ACDBDICTIONARYWDFLT
  2
AcDbDictionaryWithDefault
  3
ObjectDBX Classes
 90
0
 91
0
280
0
281
0
  0
CLASS
  1
SUN
  2
AcDbSun
  3
SCENEOE
 90
1153
 91
0
280
0
281
0
  0
CLASS
  1
VISUALSTYLE
  2
AcDbVisualStyle
  3
ObjectDBX Classes
 90
4095
 91
0
280
0
281
0
  0
CLASS
  1
MATERIAL
  2
AcDbMaterial
  3
ObjectDBX Classes
 90
1153
 91
0
280
0
281
0
  0
CLASS
  1
SCALE
  2
AcDbScale
  3
ObjectDBX Classes
 90
1153
 91
0
280
0
281
0
  0
CLASS
  1
TABLESTYLE
  2
AcDbTableStyle
  3
ObjectDBX Classes
 90
4095
 91
0
280
0
281
0
  0
CLASS
  1
MLEADERSTYLE
  2
AcDbMLeaderStyle
  3
ACDB_MLEADERSTYLE_CLASS
 90
4095
 91
0
280
0
281
0
  0
CLASS
  1
DICTIONARYVAR
  2
AcDbDictionaryVar
  3
ObjectDBX Classes
 90
0
 91
0
280
0
281
0
  0
CLASS
  1
CELLSTYLEMAP
  2
AcDbCellStyleMap
  3
ObjectDBX Classes
 90
1152
 91
0
280
0
281
0
  0
CLASS
  1
MENTALRAYRENDERSETTINGS
  2
AcDbMentalRayRenderSettings
  3
SCENEOE
 90
1024
 91
0
280
0
281
0
  0
CLASS
  1
ACDBDETAILVIEWSTYLE
  2
AcDbDetailViewStyle
  3
ObjectDBX Classes
 90
1025
 91
0
280
0
281
0
  0
CLASS
  1
ACDBSECTIONVIEWSTYLE
  2
AcDbSectionViewStyle
  3
ObjectDBX Classes
 90
1025
 91
0
280
0
281
0
  0
CLASS
  1
RASTERVARIABLES
  2
AcDbRasterVariables
  3
ISM
 90
0
 91
0
280
0
281
0
  0
CLASS
  1
LAYOUT
  2
AcDbLayout
  3
ObjectDBX Classes
 90
0
 91
0
280
0
281
0
  0
CLASS
  1
ACDBPLACEHOLDER
  2
AcDbPlaceHolder
  3
ObjectDBX Classes
 90
0
 91
0
280
0
281
0
  0
ENDSEC
  0
SECTION
  2
TABLES
  0
TABLE
  2
VPORT
  5
8
330
0
100
AcDbSymbolTable
 70
1
  0
VPORT
  5
23
330
8
100
AcDbSymbolTableRecord
100
AcDbViewportTableRecord
  2
*Active
 70
0
 10
0.0
 20
0.0
 11
1.0
 21
1.0
 12
0.0
 22
0.0
 13
0.0
 23
0.0
 14
0.5
 24
0.5
 15
0.5
 25
0.5
 16
0.0
 26
0.0
 36
1.0
 17
0.0
 27
0.0
 37
0.0
 40
1000.0
 41
1.34
 42
50.0
 43
0.0
 44
0.0
 50
0.0
 51
0.0
 71
0
 72
1000
 73
1
 74
3
 75
0
 76
0
 77
0
 78
0
281
0
 65
0
146
0.0
  0
ENDTAB
  0
TABLE
  2
LTYPE
  5
2
330
0
100
AcDbSymbolTable
 70
3
  0
LTYPE
  5
24
330
2
100
AcDbSymbolTableRecord
100
AcDbLinetypeTableRecord
  2
ByBlock
 70
0
  3

 72
65
 73
0
 40
0.0
  0
LTYPE
  5
25
330
2
100
AcDbSymbolTableRecord
100
AcDbLinetypeTableRecord
  2
ByLayer
 70
0
  3

 72
65
 73
0
 40
0.0
  0
LTYPE
  5
26
330
2
100
AcDbSymbolTableRecord
100
AcDbLinetypeTableRecord
  2
Continuous
 70
0
  3

 72
65
 73
0
 40
0.0
  0
ENDTAB
  0
TABLE
  2
LAYER
  5
1
330
0
100
AcDbSymbolTable
 70
3
  0
LAYER
  5
27
330
1
100
AcDbSymbolTableRecord
100
AcDbLayerTableRecord
  2
0
 70
0
 62
7
  6
Continuous
370
-3
390
13
347
21
  0
LAYER
  5
28
330
1
100
AcDbSymbolTableRecord
100
AcDbLayerTableRecord
  2
Defpoints
 70
0
 62
7
  6
Continuous
290
0
370
-3
390
13
347
21
  0
LAYER
  5
2F
330
1
100
AcDbSymbolTableRecord
100
AcDbLayerTableRecord
  2
ROAD_AXIS
 70
0
 62
6
  6
Continuous
370
-3
390
13
347
21
  0
ENDTAB
  0
TABLE
  2
STYLE
  5
5
330
0
100
AcDbSymbolTable
 70
1
  0
STYLE
  5
29
330
5
100
AcDbSymbolTableRecord
100
AcDbTextStyleTableRecord
  2
Standard
 70
0
 40
0.0
 41
1.0
 50
0.0
 71
0
 42
2.5
  3
txt
  4

  0
ENDTAB
  0
TABLE
  2
VIEW
  5
7
330
0
100
AcDbSymbolTable
 70
0
  0
ENDTAB
  0
TABLE
  2
UCS
  5
6
330
0
100
AcDbSymbolTable
 70
0
  0
ENDTAB
  0
TABLE
  2
APPID
  5
3
330
0
100
AcDbSymbolTable
 70
3
  0
APPID
  5
2A
330
3
100
AcDbSymbolTableRecord
100
AcDbRegAppTableRecord
  2
ACAD
 70
0
  0
APPID
  5
31
330
3
100
AcDbSymbolTableRecord
100
AcDbRegAppTableRecord
  2
HATCHBACKGROUNDCOLOR
 70
0
  0
APPID
  5
32
330
3
100
AcDbSymbolTableRecord
100
AcDbRegAppTableRecord
  2
EZDXF
 70
0
  0
ENDTAB
  0
TABLE
  2
DIMSTYLE
  5
4
330
0
100
AcDbSymbolTable
 70
1
100
AcDbDimStyleTable
  0
DIMSTYLE
105
2B
330
4
100
AcDbSymbolTableRecord
100
AcDbDimStyleTableRecord
  2
Standard
 70
0
 40
1.0
 41
2.5
 42
0.625
 43
3.75
 44
1.25
 45
0.0
 46
0.0
 47
0.0
 48
0.0
 49
2.5
140
2.5
141
2.5
142
0.0
143
0.03937007874
144
1.0
145
0.0
146
1.0
147
0.625
148
0.0
 69
0
 70
0
 71
0
 72
0
 73
0
 74
0
 75
0
 76
0
 77
1
 78
8
 79
3
170
0
171
3
172
1
173
0
174
0
175
0
176
0
177
0
178
0
179
2
271
2
272
2
273
2
274
3
275
0
276
0
277
2
278
44
279
0
280
0
281
0
282
0
283
0
284
8
285
0
286
0
288
0
289
3
290
0
371
-2
372
-2
  0
ENDTAB
  0
TABLE
  2
BLOCK_RECORD
  5
9
330
0
100
AcDbSymbolTable
 70
2
  0
BLOCK_RECORD
  5
17
330
9
100
AcDbSymbolTableRecord
100
AcDbBlockTableRecord
  2
*Model_Space
340
1A
 70
0
280
1
281
0
  0
BLOCK_RECORD
  5
1B
330
9
100
AcDbSymbolTableRecord
100
AcDbBlockTableRecord
  2
*Paper_Space
340
1E
 70
0
280
1
281
0
  0
ENDTAB
  0
ENDSEC
  0
SECTION
  2
BLOCKS
  0
BLOCK
  5
18
330
17
100
AcDbEntity
  8
0
100
AcDbBlockBegin
  2
*Model_Space
 70
0
 10
0.0
 20
0.0
 30
0.0
  3
*Model_Space
  1

  0
ENDBLK
  5
19
330
17
100
AcDbEntity
  8
0
100
AcDbBlockEnd
  0
BLOCK
  5
1C
330
1B
100
AcDbEntity
  8
0
100
AcDbBlockBegin
  2
*Paper_Space
 70
0
 10
0.0
 20
0.0
 30
0.0
  3
*Paper_Space
  1

  0
ENDBLK
  5
1D
330
1B
100
AcDbEntity
  8
0
100
AcDbBlockEnd
  0
ENDSEC
  0
SECTION
  2
ENTITIES
  0
LWPOLYLINE
  5
30
330
17
100
AcDbEntity
  8
ROAD_AXIS
100
AcDbPolyline
 90
620
 70
0
 10
317691.5378
 20
935312.2543
 10
317692.711
 20
935315.5199
 10
317693.8449
 20
935318.829
 10
317694.9915
 20
935322.1352
 10
317696.1532
 20
935325.4378
 10
317697.316
 20
935328.7419
 10
317698.472
 20
935332.0473
 10
317699.6225
 20
935335.3543
 10
317700.7688
 20
935338.6614
 10
317701.9127
 20
935341.9684
 10
317703.0561
 20
935345.2756
 10
317704.1987
 20
935348.5859
 10
317705.3383
 20
935351.8993
 10
317706.4732
 20
935355.2187
 10
317707.6006
 20
935358.5404
 10
317708.7216
 20
935361.8597
 10
317709.8532
 20
935365.1591
 10
317711.0194
 20
935368.4258
 10
317712.2325
 20
935371.6911
 10
317713.4734
 20
935374.9574
 10
317714.723
 20
935378.2265
 10
317715.9701
 20
935381.4926
 10
317717.213
 20
935384.7617
 10
317718.4609
 20
935388.0406
 10
317719.7182
 20
935391.3208
 10
317720.9847
 20
935394.5806
 10
317722.259
 20
935397.8175
 10
317723.5424
 20
935401.0406
 10
317724.8421
 20
935404.2906
 10
317726.1432
 20
935407.5679
 10
317727.4351
 20
935410.8239
 10
317728.7418
 20
935414.0453
 10
317730.0852
 20
935417.2614
 10
317731.4444
 20
935420.4933
 10
317732.7855
 20
935423.7432
 10
317734.1041
 20
935426.9928
 10
317735.4186
 20
935430.2313
 10
317736.7387
 20
935433.4622
 10
317738.0578
 20
935436.696
 10
317739.3693
 20
935439.9346
 10
317740.69
 20
935443.1803
 10
317742.038
 20
935446.4269
 10
317743.3537
 20
935449.6798
 10
317744.6498
 20
935452.9382
 10
317745.93
 20
935456.199
 10
317747.2018
 20
935459.4631
 10
317748.4667
 20
935462.7311
 10
317749.7126
 20
935466.0198
 10
317750.9156
 20
935469.3262
 10
317752.0786
 20
935472.6388
 10
317753.2465
 20
935475.9315
 10
317754.4617
 20
935479.1941
 10
317755.6883
 20
935482.4636
 10
317756.8844
 20
935485.7522
 10
317758.1001
 20
935489.0416
 10
317759.3126
 20
935492.3445
 10
317760.497
 20
935495.6477
 10
317761.6679
 20
935498.936
 10
317762.8515
 20
935502.2119
 10
317764.0492
 20
935505.5016
 10
317765.2357
 20
935508.8155
 10
317766.397
 20
935512.1262
 10
317767.5585
 20
935515.4187
 10
317768.7362
 20
935518.7003
 10
317769.9305
 20
935521.9841
 10
317771.1356
 20
935525.2662
 10
317772.3489
 20
935528.5477
 10
317773.5691
 20
935531.8277
 10
317774.7931
 20
935535.1077
 10
317776.0136
 20
935538.3911
 10
317777.2234
 20
935541.6766
 10
317778.4361
 20
935544.9516
 10
317779.6805
 20
935548.21
 10
317780.9631
 20
935551.4536
 10
317782.2574
 20
935554.7017
 10
317783.5382
 20
935557.9591
 10
317784.811
 20
935561.2209
 10
317786.0901
 20
935564.482
 10
317787.3799
 20
935567.7368
 10
317788.6713
 20
935570.9891
 10
317789.9576
 20
935574.2421
 10
317791.2435
 20
935577.492
 10
317792.5369
 20
935580.7419
 10
317793.8294
 20
935584.0097
 10
317795.1094
 20
935587.2591
 10
317796.4015
 20
935590.5006
 10
317797.6989
 20
935593.7546
 10
317798.9865
 20
935597.0216
 10
317800.2725
 20
935600.2816
 10
317801.5828
 20
935603.5265
 10
317802.8672
 20
935606.7786
 10
317804.0924
 20
935610.0468
 10
317805.3704
 20
935613.2998
 10
317806.6786
 20
935616.5505
 10
317807.9696
 20
935619.8107
 10
317809.2366
 20
935623.0757
 10
317810.4995
 20
935626.3366
 10
317811.7719
 20
935629.595
 10
317813.0493
 20
935632.8567
 10
317814.3245
 20
935636.1193
 10
317815.5989
 20
935639.3744
 10
317816.8788
 20
935642.6177
 10
317818.1697
 20
935645.8672
 10
317819.4598
 20
935649.1324
 10
317820.7348
 20
935652.4009
 10
317822.0011
 20
935655.6673
 10
317823.267
 20
935658.9293
 10
317824.534
 20
935662.199
 10
317825.7916
 20
935665.4763
 10
317827.0361
 20
935668.7536
 10
317828.2758
 20
935672.0225
 10
317829.5202
 20
935675.2848
 10
317830.7709
 20
935678.5519
 10
317832.0216
 20
935681.8239
 10
317833.2693
 20
935685.0949
 10
317834.5179
 20
935688.3623
 10
317835.7718
 20
935691.627
 10
317837.0324
 20
935694.8881
 10
317838.3012
 20
935698.1469
 10
317839.5785
 20
935701.4013
 10
317840.8657
 20
935704.6525
 10
317842.1622
 20
935707.9009
 10
317843.4639
 20
935711.1501
 10
317844.766
 20
935714.4
 10
317846.0666
 20
935717.6492
 10
317847.3647
 20
935720.8975
 10
317848.6635
 20
935724.1433
 10
317849.9694
 20
935727.38
 10
317851.2943
 20
935730.6079
 10
317852.6529
 20
935733.8136
 10
317854.0642
 20
935737.0002
 10
317855.5189
 20
935740.1675
 10
317856.9937
 20
935743.3335
 10
317858.4717
 20
935746.5007
 10
317859.9594
 20
935749.6692
 10
317861.4613
 20
935752.8302
 10
317862.9784
 20
935755.9738
 10
317864.5131
 20
935759.0954
 10
317866.0777
 20
935762.2174
 10
317867.6694
 20
935765.3392
 10
317869.2715
 20
935768.4523
 10
317870.8624
 20
935771.5572
 10
317872.4755
 20
935774.6468
 10
317874.1275
 20
935777.7207
 10
317875.8129
 20
935780.7884
 10
317877.5172
 20
935783.8453
 10
317879.2109
 20
935786.9058
 10
317880.8728
 20
935789.9804
 10
317882.5309
 20
935793.0559
 10
317884.22
 20
935796.1132
 10
317885.9459
 20
935799.1542
 10
317887.6695
 20
935802.2042
 10
317889.3586
 20
935805.2836
 10
317891.0103
 20
935808.3944
 10
317892.6191
 20
935811.5244
 10
317894.1977
 20
935814.6542
 10
317895.7767
 20
935817.7637
 10
317897.3835
 20
935820.8551
 10
317899.0205
 20
935823.9421
 10
317900.676
 20
935827.0305
 10
317902.3138
 20
935830.1412
 10
317903.8893
 20
935833.302
 10
317905.3851
 20
935836.4836
 10
317906.8454
 20
935839.6719
 10
317908.3059
 20
935842.8523
 10
317909.7738
 20
935846.028
 10
317911.2471
 20
935849.2005
 10
317912.7232
 20
935852.3699
 10
317914.2008
 20
935855.539
 10
317915.6799
 20
935858.711
 10
317917.1631
 20
935861.8864
 10
317918.65
 20
935865.0645
 10
317920.1271
 20
935868.2419
 10
317921.5827
 20
935871.4275
 10
317923.0165
 20
935874.6213
 10
317924.4441
 20
935877.8172
 10
317925.8765
 20
935881.0102
 10
317927.3115
 20
935884.2008
 10
317928.7457
 20
935887.3915
 10
317930.1782
 20
935890.5817
 10
317931.6132
 20
935893.7715
 10
317933.0526
 20
935896.9629
 10
317934.4917
 20
935900.1591
 10
317935.9255
 20
935903.3623
 10
317937.3519
 20
935906.5596
 10
317938.7799
 20
935909.7477
 10
317940.2175
 20
935912.9343
 10
317941.6594
 20
935916.1222
 10
317943.1008
 20
935919.3132
 10
317944.5384
 20
935922.5093
 10
317945.9685
 20
935925.7085
 10
317947.3925
 20
935928.9027
 10
317948.8219
 20
935932.0865
 10
317950.2673
 20
935935.2615
 10
317951.73
 20
935938.4411
 10
317953.199
 20
935941.6305
 10
317954.6295
 20
935944.8424
 10
317955.9017
 20
935948.1244
 10
317957.2146
 20
935951.3447
 10
317958.6448
 20
935954.4841
 10
317960.157
 20
935957.6255
 10
317961.7724
 20
935960.7436
 10
317963.3268
 20
935963.8938
 10
317964.7415
 20
935967.1046
 10
317966.156
 20
935970.3015
 10
317967.5951
 20
935973.4897
 10
317969.0297
 20
935976.6857
 10
317970.4379
 20
935979.8914
 10
317971.8411
 20
935983.0905
 10
317973.2687
 20
935986.2754
 10
317974.7141
 20
935989.4707
 10
317976.1383
 20
935992.6999
 10
317977.5083
 20
935995.9351
 10
317978.865
 20
935999.1499
 10
317980.2447
 20
936002.35
 10
317981.6412
 20
936005.5656
 10
317983.0185
 20
936008.807
 10
317984.3579
 20
936012.0493
 10
317985.6862
 20
936015.2701
 10
317987.0327
 20
936018.4817
 10
317988.3882
 20
936021.7208
 10
317989.7191
 20
936024.998
 10
317991.008
 20
936028.2548
 10
317992.2898
 20
936031.4718
 10
317993.5996
 20
936034.7119
 10
317994.9022
 20
936038.0274
 10
317996.1291
 20
936041.353
 10
317997.3103
 20
936044.6018
 10
317998.5289
 20
936047.9043
 10
317999.6557
 20
936051.2911
 10
318000.5616
 20
936054.8132
 10
318001.1479
 20
936058.388
 10
318001.4443
 20
936061.9833
 10
318001.4361
 20
936065.5925
 10
318001.33
 20
936069.0349
 10
318001.2559
 20
936072.641
 10
318001.0797
 20
936076.097
 10
318000.9474
 20
936079.5703
 10
318000.8578
 20
936083.0551
 10
318000.8283
 20
936086.515
 10
318000.8797
 20
936089.9787
 10
318001.0024
 20
936093.4548
 10
318001.1676
 20
936096.9425
 10
318001.354
 20
936100.4332
 10
318001.5734
 20
936103.9056
 10
318001.8412
 20
936107.375
 10
318002.1502
 20
936110.8427
 10
318002.4856
 20
936114.3174
 10
318002.836
 20
936117.7931
 10
318003.1953
 20
936121.2739
 10
318003.5565
 20
936124.7605
 10
318003.9065
 20
936128.2518
 10
318004.2318
 20
936131.7557
 10
318004.516
 20
936135.2652
 10
318004.738
 20
936138.7946
 10
318004.8753
 20
936142.3156
 10
318004.9253
 20
936145.8349
 10
318004.9092
 20
936149.3425
 10
318004.8938
 20
936152.8555
 10
318004.87
 20
936156.3711
 10
318004.7868
 20
936159.8851
 10
318004.6472
 20
936163.4084
 10
318004.4558
 20
936166.9228
 10
318004.2271
 20
936170.4351
 10
318003.9791
 20
936173.9361
 10
318003.7292
 20
936177.4327
 10
318003.5016
 20
936180.9229
 10
318003.3417
 20
936184.4139
 10
318003.117
 20
936187.9074
 10
318002.8499
 20
936191.4009
 10
318002.5831
 20
936194.8879
 10
318002.3313
 20
936198.3695
 10
318002.0983
 20
936201.8561
 10
318001.8784
 20
936205.3443
 10
318001.658
 20
936208.8376
 10
318001.4018
 20
936212.3377
 10
318001.1453
 20
936215.8409
 10
318000.8855
 20
936219.3404
 10
318000.6075
 20
936222.8304
 10
318000.3087
 20
936226.3177
 10
318000.0017
 20
936229.8053
 10
317999.6989
 20
936233.2928
 10
317999.4082
 20
936236.7769
 10
317999.1343
 20
936240.2564
 10
317998.8728
 20
936243.7423
 10
317998.6118
 20
936247.2327
 10
317998.3415
 20
936250.7248
 10
317998.0596
 20
936254.2177
 10
317997.766
 20
936257.7092
 10
317997.4603
 20
936261.2018
 10
317997.1424
 20
936264.6924
 10
317996.8138
 20
936268.1822
 10
317996.4813
 20
936271.6679
 10
317996.1506
 20
936275.1529
 10
317995.8194
 20
936278.6395
 10
317995.4815
 20
936282.1284
 10
317995.1354
 20
936285.6164
 10
317994.7846
 20
936289.107
 10
317994.4336
 20
936292.5928
 10
317994.0797
 20
936296.0717
 10
317993.7192
 20
936299.5457
 10
317993.3544
 20
936303.0194
 10
317992.9892
 20
936306.4979
 10
317992.6273
 20
936309.9805
 10
317992.2726
 20
936313.467
 10
317991.928
 20
936316.9572
 10
317991.5883
 20
936320.4422
 10
317991.2431
 20
936323.9223
 10
317990.894
 20
936327.3991
 10
317990.5584
 20
936330.8701
 10
317990.2473
 20
936334.3486
 10
317989.9474
 20
936337.8389
 10
317989.6395
 20
936341.3337
 10
317989.3368
 20
936344.8092
 10
317989.0744
 20
936348.2723
 10
317988.8774
 20
936351.7274
 10
317988.7457
 20
936355.1999
 10
317988.675
 20
936358.6715
 10
317988.6612
 20
936362.1546
 10
317988.6971
 20
936365.6406
 10
317988.7835
 20
936369.1137
 10
317988.9299
 20
936372.5831
 10
317989.1467
 20
936376.0385
 10
317989.4263
 20
936379.5077
 10
317989.7526
 20
936382.9749
 10
317990.1219
 20
936386.4382
 10
317990.543
 20
936389.8822
 10
317991.0284
 20
936393.3194
 10
317991.5882
 20
936396.7401
 10
317992.2331
 20
936400.1221
 10
317992.991
 20
936403.4738
 10
317994.0065
 20
936406.6831
 10
317995.2501
 20
936409.8122
 10
317996.7711
 20
936412.8167
 10
317998.5545
 20
936415.7951
 10
318000.594
 20
936418.152
 10
318003.105
 20
936420.2234
 10
318005.9552
 20
936421.7765
 10
318009.09
 20
936423.1031
 10
318012.3239
 20
936424.254
 10
318015.5812
 20
936425.1853
 10
318018.958
 20
936425.9694
 10
318022.3531
 20
936426.7273
 10
318025.7633
 20
936427.3207
 10
318029.1756
 20
936427.8316
 10
318032.6266
 20
936428.3082
 10
318036.0983
 20
936428.7778
 10
318039.5651
 20
936429.247
 10
318043.0224
 20
936429.7031
 10
318046.4858
 20
936430.1409
 10
318049.957
 20
936430.5656
 10
318053.4338
 20
936430.9838
 10
318056.9024
 20
936431.387
 10
318060.369
 20
936431.7617
 10
318063.8406
 20
936432.1068
 10
318067.3234
 20
936432.4397
 10
318070.8116
 20
936432.7748
 10
318074.2991
 20
936433.1135
 10
318077.7866
 20
936433.4535
 10
318081.2673
 20
936433.7939
 10
318084.7381
 20
936434.1378
 10
318088.2172
 20
936434.488
 10
318091.7166
 20
936434.8395
 10
318095.218
 20
936435.1894
 10
318098.7124
 20
936435.5859
 10
318102.1827
 20
936436.1106
 10
318105.6828
 20
936436.9063
 10
318109.216
 20
936438.1552
 10
318112.5895
 20
936439.9859
 10
318115.6609
 20
936442.5595
 10
318118.0525
 20
936445.7604
 10
318119.7382
 20
936449.2941
 10
318120.8358
 20
936452.754
 10
318121.5745
 20
936456.2945
 10
318122.0796
 20
936459.8252
 10
318122.4736
 20
936463.3276
 10
318122.812
 20
936466.8174
 10
318123.1313
 20
936470.2909
 10
318123.4532
 20
936473.7652
 10
318123.7856
 20
936477.2471
 10
318124.1294
 20
936480.7352
 10
318124.4722
 20
936484.228
 10
318124.8016
 20
936487.7244
 10
318125.1245
 20
936491.2049
 10
318125.4581
 20
936494.6677
 10
318125.8048
 20
936498.1458
 10
318126.1355
 20
936501.6499
 10
318126.425
 20
936505.1562
 10
318126.6862
 20
936508.6503
 10
318126.9462
 20
936512.1287
 10
318127.232
 20
936515.6107
 10
318127.5288
 20
936519.0987
 10
318127.8118
 20
936522.5875
 10
318128.1093
 20
936526.0729
 10
318128.3918
 20
936529.5555
 10
318128.7105
 20
936533.0343
 10
318129.0551
 20
936536.506
 10
318129.4218
 20
936539.9804
 10
318129.8014
 20
936543.4562
 10
318130.1855
 20
936546.934
 10
318130.5427
 20
936550.4125
 10
318130.9335
 20
936553.886
 10
318131.394
 20
936557.3551
 10
318131.8228
 20
936560.8325
 10
318132.2182
 20
936564.3141
 10
318132.5927
 20
936567.793
 10
318132.9627
 20
936571.2678
 10
318133.3419
 20
936574.7429
 10
318133.7399
 20
936578.2151
 10
318134.1561
 20
936581.6868
 10
318134.5756
 20
936585.1566
 10
318134.9891
 20
936588.6274
 10
318135.4136
 20
936592.0941
 10
318135.8749
 20
936595.5584
 10
318136.3696
 20
936599.0183
 10
318136.8681
 20
936602.4799
 10
318137.3514
 20
936605.9424
 10
318137.8345
 20
936609.4044
 10
318138.338
 20
936612.8602
 10
318138.8694
 20
936616.3124
 10
318139.4237
 20
936619.7567
 10
318139.9978
 20
936623.202
 10
318140.5878
 20
936626.6458
 10
318141.1915
 20
936630.0916
 10
318141.8059
 20
936633.5384
 10
318142.4285
 20
936636.9835
 10
318143.064
 20
936640.4012
 10
318143.7365
 20
936643.7927
 10
318144.466
 20
936647.1703
 10
318145.2441
 20
936650.5721
 10
318146.04
 20
936654.0079
 10
318146.8216
 20
936657.4637
 10
318147.5616
 20
936660.936
 10
318148.2393
 20
936664.3812
 10
318148.9004
 20
936667.7802
 10
318149.6398
 20
936671.1628
 10
318150.4368
 20
936674.5576
 10
318151.2257
 20
936677.9801
 10
318151.971
 20
936681.4094
 10
318152.6954
 20
936684.8334
 10
318153.4238
 20
936688.2548
 10
318154.1427
 20
936691.6966
 10
318154.8211
 20
936695.1575
 10
318155.45
 20
936698.6028
 10
318156.0486
 20
936702.0261
 10
318156.7227
 20
936705.4454
 10
318157.4505
 20
936708.8806
 10
318158.1207
 20
936712.33
 10
318158.7766
 20
936715.7536
 10
318159.4863
 20
936719.148
 10
318160.271
 20
936722.5405
 10
318161.0569
 20
936725.9644
 10
318161.7891
 20
936729.412
 10
318162.5374
 20
936732.8422
 10
318163.2366
 20
936736.2667
 10
318163.9446
 20
936739.6878
 10
318164.6677
 20
936743.109
 10
318165.4048
 20
936746.5282
 10
318166.1439
 20
936749.9491
 10
318166.8712
 20
936753.3745
 10
318167.5829
 20
936756.8041
 10
318168.2803
 20
936760.2393
 10
318168.9643
 20
936763.6792
 10
318169.6346
 20
936767.1212
 10
318170.2941
 20
936770.5623
 10
318170.9544
 20
936773.9924
 10
318171.6325
 20
936777.4109
 10
318172.3358
 20
936780.8286
 10
318173.055
 20
936784.2576
 10
318173.7786
 20
936787.6899
 10
318174.5015
 20
936791.1139
 10
318175.2231
 20
936794.5318
 10
318175.9448
 20
936797.9554
 10
318176.664
 20
936801.3855
 10
318177.3797
 20
936804.8122
 10
318178.0956
 20
936808.2315
 10
318178.8167
 20
936811.6498
 10
318179.5443
 20
936815.0735
 10
318180.2749
 20
936818.5028
 10
318181.004
 20
936821.9342
 10
318181.727
 20
936825.3636
 10
318182.4394
 20
936828.7958
 10
318183.1357
 20
936832.2302
 10
318183.8106
 20
936835.6671
 10
318184.4658
 20
936839.1072
 10
318185.1061
 20
936842.548
 10
318185.7458
 20
936845.9873
 10
318186.411
 20
936849.4209
 10
318187.1152
 20
936852.8414
 10
318187.8401
 20
936856.2548
 10
318188.5591
 20
936859.6676
 10
318189.278
 20
936863.0824
 10
318190.0296
 20
936866.4987
 10
318190.8211
 20
936869.9054
 10
318191.6067
 20
936873.3099
 10
318192.4439
 20
936876.6922
 10
318193.3213
 20
936880.0651
 10
318194.1929
 20
936883.4322
 10
318195.1055
 20
936886.8002
 10
318196.0365
 20
936890.1723
 10
318196.9644
 20
936893.5467
 10
318197.8678
 20
936896.912
 10
318198.8586
 20
936900.246
 10
318199.9033
 20
936903.5608
 10
318200.969
 20
936906.8785
 10
318202.0602
 20
936910.1856
 10
318203.1886
 20
936913.4872
 10
318204.3576
 20
936916.7719
 10
318205.5695
 20
936920.0416
 10
318206.8225
 20
936923.2932
 10
318208.1173
 20
936926.5151
 10
318209.4678
 20
936929.7105
 10
318210.8824
 20
936932.8547
 10
318212.3762
 20
936935.9953
 10
318213.9192
 20
936939.1274
 10
318215.5014
 20
936942.2283
 10
318217.1325
 20
936945.2655
 10
318218.853
 20
936948.263
 10
318220.6504
 20
936951.2421
 10
318222.4899
 20
936954.225
 10
318224.3392
 20
936957.1938
 10
318226.1935
 20
936960.1444
 10
318228.0629
 20
936963.0868
 10
318229.958
 20
936966.015
 10
318231.8781
 20
936968.9284
 10
318233.8596
 20
936971.7644
 10
318235.9028
 20
936974.5432
 10
318238.0514
 20
936977.2011
 10
318240.3464
 20
936979.6497
 10
318242.872
 20
936981.8955
 10
318245.5614
 20
936983.9995
 10
318248.3436
 20
936986.0155
 10
318251.2409
 20
936987.8971
 10
318254.2067
 20
936989.6587
 10
318257.2127
 20
936991.2961
 10
318260.2965
 20
936992.8028
 10
318263.4284
 20
936994.1296
 10
318266.6555
 20
936995.3074
 10
318269.9361
 20
936996.3634
 10
318273.2467
 20
936997.3213
 10
318276.6098
 20
936998.1911
 10
318279.9838
 20
936998.9677
 10
318283.3521
 20
936999.6224
 10
318286.6959
 20
937000.0969
 10
318290.1723
 20
937000.4145
 10
318293.6295
 20
937000.6721
 10
318297.0242
 20
937000.7614
 10
318300.4293
 20
937000.6723
 10
318303.8975
 20
937000.4456
 10
318307.3137
 20
937000.1015
 10
318310.6809
 20
936999.5909
 10
318314.0106
 20
936998.8799
 10
318317.3313
 20
936997.996
 10
318320.6458
 20
936996.9963
 10
318323.9607
 20
936995.9226
 10
318327.2669
 20
936994.8033
 10
318330.5651
 20
936993.6619
 10
318333.8452
 20
936992.519
 10
318337.1199
 20
936991.3799
 10
318340.3561
 20
936990.2308
 10
318343.5663
 20
936989.0263
 10
318346.8034
 20
936987.7341
 10
318350.1788
 20
936986.3796
 10
318353.5779
 20
936985.0875
 10
318356.8422
 20
936983.8655
 10
318360.0838
 20
936982.6623
 10
318363.3478
 20
936981.4689
 10
318366.623
 20
936980.2855
 10
318369.911
 20
936979.1083
 10
318373.2039
 20
936977.9363
 10
318376.5016
 20
936976.7663
 10
318379.8007
 20
936975.5982
 10
318383.1012
 20
936974.4318
 10
318386.4033
 20
936973.2668
 10
318389.706
 20
936972.1029
 10
318393.0095
 20
936970.9398
 10
318396.3117
 20
936969.777
 10
318399.613
 20
936968.6138
 10
318402.913
 20
936967.4492
 10
318406.2107
 20
936966.2824
 10
318409.5082
 20
936965.1134
 10
318412.8081
 20
936963.9477
 10
318416.1101
 20
936962.7909
 10
318419.3995
 20
936961.6283
 10
318422.673
 20
936960.4318
 10
318425.9324
 20
936959.194
 10
318429.1933
 20
936957.9304
 10
318432.4609
 20
936956.6614
 10
318435.7413
 20
936955.4103
 10
318439.0458
 20
936954.1979
 10
318442.3445
 20
936953.0223
 10
318445.6201
 20
936951.8424
 10
318448.8952
 20
936950.6225
 10
318452.1919
 20
936949.3789
 10
318455.5369
 20
936948.2251
 10
318458.951
 20
936947.2166
 10
318462.4066
 20
936946.3489
 10
318465.8826
 20
936945.6216
 10
318469.4122
 20
936945.0552
 10
318472.9759
 20
936944.6922
 10
318476.5337
 20
936944.5477
 10
318480.0749
 20
936944.5525
 10
318483.6106
 20
936944.6681
 10
318487.1749
 20
936944.9204
 10
318490.7226
 20
936945.3254
 10
318494.2176
 20
936945.848
 10
318497.6979
 20
936946.4554
 10
318501.1644
 20
936947.1417
 10
318504.6323
 20
936947.9219
 10
318508.2317
 20
936948.9394
 10
318511.4799
 20
936950.1932
 10
318514.757
 20
936951.7131
 10
318517.7645
 20
936953.2194
 10
318520.9371
 20
936954.6202
 10
318524.2652
 20
936955.7124
 10
318527.6007
 20
936956.7189
 10
318531.5744
 20
936957.4321
 10
318531.5491
 20
936959.435
 10
318531.6785
 20
936961.1802
 10
318531.7982
 20
936962.7935
  0
ENDSEC
  0
SECTION
  2
OBJECTS
  0
DICTIONARY
  5
A
330
0
100
AcDbDictionary
281
1
  3
ACAD_COLOR
350
B
  3
ACAD_GROUP
350
C
  3
ACAD_LAYOUT
350
D
  3
ACAD_MATERIAL
350
E
  3
ACAD_MLEADERSTYLE
350
F
  3
ACAD_MLINESTYLE
350
10
  3
ACAD_PLOTSETTINGS
350
11
  3
ACAD_PLOTSTYLENAME
350
12
  3
ACAD_SCALELIST
350
14
  3
ACAD_TABLESTYLE
350
15
  3
ACAD_VISUALSTYLE
350
16
  3
EZDXF_META
350
2D
  0
DICTIONARY
  5
B
330
A
100
AcDbDictionary
281
1
  0
DICTIONARY
  5
C
330
A
100
AcDbDictionary
281
1
  0
DICTIONARY
  5
D
330
A
100
AcDbDictionary
281
1
  3
Model
350
1A
  3
Layout1
350
1E
  0
DICTIONARY
  5
E
330
A
100
AcDbDictionary
281
1
  3
ByBlock
350
1F
  3
ByLayer
350
20
  3
Global
350
21
  0
DICTIONARY
  5
F
330
A
100
AcDbDictionary
281
1
  3
Standard
350
2C
  0
DICTIONARY
  5
10
330
A
100
AcDbDictionary
281
1
  3
Standard
350
22
  0
DICTIONARY
  5
11
330
A
100
AcDbDictionary
281
1
  0
ACDBDICTIONARYWDFLT
  5
12
330
A
100
AcDbDictionary
281
1
  3
Normal
350
13
100
AcDbDictionaryWithDefault
340
13
  0
ACDBPLACEHOLDER
  5
13
330
12
  0
DICTIONARY
  5
14
330
A
100
AcDbDictionary
281
1
  0
DICTIONARY
  5
15
330
A
100
AcDbDictionary
281
1
  0
DICTIONARY
  5
16
330
A
100
AcDbDictionary
281
1
  0
LAYOUT
  5
1A
330
D
100
AcDbPlotSettings
  1

  4
A3
  6

 40
7.5
 41
20.0
 42
7.5
 43
20.0
 44
420.0
 45
297.0
 46
0.0
 47
0.0
 48
0.0
 49
0.0
140
0.0
141
0.0
142
1.0
143
1.0
 70
1024
 72
1
 73
0
 74
5
  7

 75
16
 76
0
 77
2
 78
300
147
1.0
148
0.0
149
0.0
100
AcDbLayout
  1
Model
 70
1
 71
0
 10
0.0
 20
0.0
 11
420.0
 21
297.0
 12
0.0
 22
0.0
 32
0.0
 14
1e+20
 24
1e+20
 34
1e+20
 15
-1e+20
 25
-1e+20
 35
-1e+20
146
0.0
 13
0.0
 23
0.0
 33
0.0
 16
1.0
 26
0.0
 36
0.0
 17
0.0
 27
1.0
 37
0.0
 76
1
330
17
  0
LAYOUT
  5
1E
330
D
100
AcDbPlotSettings
  1

  4
A3
  6

 40
7.5
 41
20.0
 42
7.5
 43
20.0
 44
420.0
 45
297.0
 46
0.0
 47
0.0
 48
0.0
 49
0.0
140
0.0
141
0.0
142
1.0
143
1.0
 70
0
 72
1
 73
0
 74
5
  7

 75
16
 76
0
 77
2
 78
300
147
1.0
148
0.0
149
0.0
100
AcDbLayout
  1
Layout1
 70
1
 71
1
 10
0.0
 20
0.0
 11
420.0
 21
297.0
 12
0.0
 22
0.0
 32
0.0
 14
1e+20
 24
1e+20
 34
1e+20
 15
-1e+20
 25
-1e+20
 35
-1e+20
146
0.0
 13
0.0
 23
0.0
 33
0.0
 16
1.0
 26
0.0
 36
0.0
 17
0.0
 27
1.0
 37
0.0
 76
1
330
1B
  0
MATERIAL
  5
1F
102
{ACAD_REACTORS
330
E
102
}
330
E
100
AcDbMaterial
  1
ByBlock
  2

 70
0
 40
1.0
 71
1
 41
1.0
 91
-1023410177
 42
1.0
 72
1
  3

 73
1
 74
1
 75
1
 44
0.5
 73
0
 45
1.0
 46
1.0
 77
1
  4

 78
1
 79
1
170
1
 48
1.0
171
1
  6

172
1
173
1
174
1
140
1.0
141
1.0
175
1
  7

176
1
177
1
178
1
143
1.0
179
1
  8

270
1
271
1
272
1
145
1.0
146
1.0
273
1
  9

274
1
275
1
276
1
 42
1.0
 72
1
  3

 73
1
 74
1
 75
1
 94
63
  0
MATERIAL
  5
20
102
{ACAD_REACTORS
330
E
102
}
330
E
100
AcDbMaterial
  1
ByLayer
  2

 70
0
 40
1.0
 71
1
 41
1.0
 91
-1023410177
 42
1.0
 72
1
  3

 73
1
 74
1
 75
1
 44
0.5
 73
0
 45
1.0
 46
1.0
 77
1
  4

 78
1
 79
1
170
1
 48
1.0
171
1
  6

172
1
173
1
174
1
140
1.0
141
1.0
175
1
  7

176
1
177
1
178
1
143
1.0
179
1
  8

270
1
271
1
272
1
145
1.0
146
1.0
273
1
  9

274
1
275
1
276
1
 42
1.0
 72
1
  3

 73
1
 74
1
 75
1
 94
63
  0
MATERIAL
  5
21
102
{ACAD_REACTORS
330
E
102
}
330
E
100
AcDbMaterial
  1
Global
  2

 70
0
 40
1.0
 71
1
 41
1.0
 91
-1023410177
 42
1.0
 72
1
  3

 73
1
 74
1
 75
1
 44
0.5
 73
0
 45
1.0
 46
1.0
 77
1
  4

 78
1
 79
1
170
1
 48
1.0
171
1
  6

172
1
173
1
174
1
140
1.0
141
1.0
175
1
  7

176
1
177
1
178
1
143
1.0
179
1
  8

270
1
271
1
272
1
145
1.0
146
1.0
273
1
  9

274
1
275
1
276
1
 42
1.0
 72
1
  3

 73
1
 74
1
 75
1
 94
63
  0
MLINESTYLE
  5
22
102
{ACAD_REACTORS
330
10
102
}
330
10
100
AcDbMlineStyle
  2
Standard
 70
0
  3

 62
256
 51
90.0
 52
90.0
 71
2
 49
0.5
 62
256
  6
BYLAYER
 49
-0.5
 62
256
  6
BYLAYER
  0
MLEADERSTYLE
  5
2C
102
{ACAD_REACTORS
330
F
102
}
330
F
100
AcDbMLeaderStyle
179
2
170
2
171
1
172
0
 90
2
 40
0.0
 41
0.0
173
1
 91
-1056964608
 92
-2
290
1
 42
2.0
291
1
 43
8.0
  3
Standard
 44
4.0
300

342
29
174
1
175
1
176
0
178
1
 93
-1056964608
 45
4.0
292
0
297
0
 46
4.0
 94
-1056964608
 47
1.0
 49
1.0
140
1.0
294
1
141
0.0
177
0
142
1.0
295
0
296
0
143
3.75
271
0
272
9
273
9
  0
DICTIONARY
  5
2D
330
A
100
AcDbDictionary
280
1
281
1
  3
CREATED_BY_EZDXF
350
2E
  3
WRITTEN_BY_EZDXF
350
33
  0
DICTIONARYVAR
  5
2E
330
2D
100
DictionaryVariables
280
0
  1
1.4.3 @ 2026-04-10T22:25:11.849075+00:00
  0
DICTIONARYVAR
  5
33
330
2D
100
DictionaryVariables
280
0
  1
1.4.3 @ 2026-04-10T22:25:11.853074+00:00
  0
ENDSEC
  0
EOF
